<svg width="16" height="16" viewBox="0 0 16 16" fill="none" xmlns="http://www.w3.org/2000/svg">
<path d="M1.57574 9.57574C1.34142 9.81005 1.34142 10.1899 1.57574 10.4243C1.81005 10.6586 2.18995 10.6586 2.42426 10.4243L1.57574 9.57574ZM4.86193 7.13807L4.43767 6.71381L4.86193 7.13807ZM5.80474 7.13807L5.38047 7.56234L5.38047 7.56234L5.80474 7.13807ZM8.66667 10L8.2424 10.4243C8.47672 10.6586 8.85662 10.6586 9.09093 10.4243L8.66667 10ZM10.1953 8.47141L9.771 8.04714V8.04714L10.1953 8.47141ZM11.1381 8.4714L10.7138 8.89567L11.1381 8.4714ZM13.5757 11.7576C13.8101 11.9919 14.1899 11.9919 14.4243 11.7576C14.6586 11.5233 14.6586 11.1434 14.4243 10.9091L13.5757 11.7576ZM4 2.6H12V1.4H4V2.6ZM13.4 4V12H14.6V4H13.4ZM12 13.4H4V14.6H12V13.4ZM2.6 12V4H1.4V12H2.6ZM4 13.4C3.2268 13.4 2.6 12.7732 2.6 12H1.4C1.4 13.4359 2.56406 14.6 4 14.6V13.4ZM13.4 12C13.4 12.7732 12.7732 13.4 12 13.4V14.6C13.4359 14.6 14.6 13.4359 14.6 12H13.4ZM12 2.6C12.7732 2.6 13.4 3.2268 13.4 4H14.6C14.6 2.56406 13.4359 1.4 12 1.4V2.6ZM4 1.4C2.56406 1.4 1.4 2.56406 1.4 4H2.6C2.6 3.2268 3.2268 2.6 4 2.6V1.4ZM2.42426 10.4243L5.28619 7.56234L4.43767 6.71381L1.57574 9.57574L2.42426 10.4243ZM5.38047 7.56234L8.2424 10.4243L9.09093 9.57574L6.229 6.71381L5.38047 7.56234ZM9.09093 10.4243L10.6195 8.89567L9.771 8.04714L8.2424 9.57574L9.09093 10.4243ZM10.7138 8.89567L13.5757 11.7576L14.4243 10.9091L11.5623 8.04714L10.7138 8.89567ZM10.6195 8.89567C10.6456 8.86963 10.6878 8.86964 10.7138 8.89567L11.5623 8.04714C11.0677 7.55247 10.2657 7.55248 9.771 8.04714L10.6195 8.89567ZM5.28619 7.56234C5.31223 7.5363 5.35444 7.5363 5.38047 7.56234L6.229 6.71381C5.73434 6.21914 4.93233 6.21914 4.43767 6.71381L5.28619 7.56234ZM11.4 5C11.4 5.22091 11.2209 5.4 11 5.4V6.6C11.8837 6.6 12.6 5.88366 12.6 5H11.4ZM11 5.4C10.7791 5.4 10.6 5.22091 10.6 5H9.4C9.4 5.88366 10.1163 6.6 11 6.6V5.4ZM10.6 5C10.6 4.77909 10.7791 4.6 11 4.6V3.4C10.1163 3.4 9.4 4.11634 9.4 5H10.6ZM11 4.6C11.2209 4.6 11.4 4.77909 11.4 5H12.6C12.6 4.11634 11.8837 3.4 11 3.4V4.6Z" fill="#F27935"/>
</svg>
