<svg width="16" height="16" viewBox="0 0 16 16" fill="none" xmlns="http://www.w3.org/2000/svg">
<g clip-path="url(#clip0_1157_3052)">
<path d="M15.9997 7.99984C15.9997 3.58169 12.418 0 7.99984 0C3.58169 0 0 3.58169 0 7.99984C0 11.7514 2.58299 14.8995 6.0674 15.7642V10.4446H4.41783V7.99984H6.0674V6.94642C6.0674 4.2236 7.29969 2.96154 9.97292 2.96154C10.4798 2.96154 11.3543 3.06106 11.7121 3.16026V5.37621C11.5233 5.35637 11.1953 5.34645 10.7879 5.34645C9.47629 5.34645 8.96942 5.8434 8.96942 7.13522V7.99984H11.5825L11.1335 10.4446H8.96942V15.9411C12.9306 15.4627 16 12.09 16 7.99984H15.9997Z" fill="#0866FF"/>
<path d="M11.1337 10.4445L11.5826 7.99973H8.96956V7.1351C8.96956 5.84329 9.47643 5.34634 10.7881 5.34634C11.1954 5.34634 11.5234 5.35626 11.7122 5.3761V3.16014C11.3545 3.06062 10.4799 2.96143 9.97306 2.96143C7.29983 2.96143 6.06754 4.22348 6.06754 6.94631V7.99973H4.41797V10.4445H6.06754V15.7641C6.6864 15.9176 7.33375 15.9996 7.99998 15.9996C8.32797 15.9996 8.65148 15.9794 8.96924 15.941V10.4445H11.1334H11.1337Z" fill="#FAFAFA"/>
</g>
<defs>
<clipPath id="clip0_1157_3052">
<rect width="16" height="16" fill="white"/>
</clipPath>
</defs>
</svg>
