<svg width="14" height="14" viewBox="0 0 14 14" fill="none" xmlns="http://www.w3.org/2000/svg">
<path d="M7.47717 4.69898C7.35459 4.51375 7.17971 4.28106 6.96594 4.03739M6.96594 4.03739C6.3453 3.32993 5.39423 2.60051 4.44916 2.52989C2.94842 2.41774 1.44082 3.25949 1.19495 5.15252C1.06002 6.19131 1.39693 6.99032 2.20761 7.785C2.5784 8.14848 5.12702 10.569 6.3418 11.6914C6.71029 12.0319 7.22443 12.0362 7.59324 11.696C8.81175 10.5723 11.3386 8.14558 11.7046 7.785C12.8156 6.6906 12.8796 5.84268 12.8156 5.15252C12.6976 3.88064 11.4883 2.75666 10.4855 2.5989C9.45599 2.43695 8.44062 2.42929 6.96594 4.03739Z" stroke="#434343" stroke-width="1.2" stroke-linecap="round" stroke-linejoin="round"/>
</svg>
