<svg width="16" height="16" viewBox="0 0 16 16" fill="none" xmlns="http://www.w3.org/2000/svg">
<path d="M11.3186 0.336913H4.79267C4.35534 0.336913 4 0.69225 4 1.12959V7.63841C4 8.07575 4.35534 8.43108 4.79267 8.43108H7.80279C7.78229 9.20326 7.46112 10.0472 6.99303 10.7954C6.47028 11.6359 5.35301 12.5687 5.34276 12.5755C5.25393 12.661 5.19243 12.7566 5.18901 12.8933C5.18901 12.9958 5.24026 13.0778 5.30176 13.1598L7.39962 15.5242C7.39962 15.5242 7.50212 15.6301 7.58412 15.6506C7.67979 15.6745 7.78571 15.6779 7.86087 15.6198C11.4928 12.8113 12.019 9.28867 12.1078 7.38215C12.1078 7.3719 12.1078 1.12617 12.1078 1.12617C12.1078 0.688833 11.7525 0.333496 11.3152 0.333496" fill="#FAE100"/>
</svg>
