<svg width="16" height="16" viewBox="0 0 16 16" fill="none" xmlns="http://www.w3.org/2000/svg">
<path d="M8.2309 3.85013C7.6529 3.85013 7.08773 3.9327 6.5418 4.09544V2.43119C6.5418 1.2744 5.59905 0.333252 4.43985 0.333252C3.28065 0.333252 2.3379 1.2744 2.3379 2.43119C2.3379 2.43119 2.32909 10.0309 2.3379 10.1648V10.3331H2.35073C2.64093 13.3225 5.16696 15.6666 8.2309 15.6666C11.4888 15.6666 14.1391 13.0163 14.1391 9.75836C14.1391 6.50042 11.4888 3.85013 8.2309 3.85013ZM8.2309 8.05403C9.17044 8.05403 9.93523 8.81881 9.93523 9.75836C9.93523 10.6979 9.17044 11.4627 8.2309 11.4627C7.29135 11.4627 6.52657 10.6979 6.52657 9.75836C6.52657 8.81881 7.29135 8.05403 8.2309 8.05403ZM8.2309 14.8713C5.53893 14.8713 3.32795 12.7806 3.13315 10.1375V2.43119C3.13315 1.71291 3.71916 1.1293 4.43985 1.1293C5.16055 1.1293 5.74656 1.71371 5.74656 2.43119V9.48339C5.73694 9.57398 5.73133 9.66537 5.73133 9.75916C5.73133 11.1372 6.85285 12.2587 8.2309 12.2587C9.60895 12.2587 10.7305 11.1372 10.7305 9.75916C10.7305 8.38111 9.60895 7.25959 8.2309 7.25959C7.58075 7.25959 6.98753 7.5097 6.5418 7.91855V6.82589C7.05406 6.53008 7.63366 6.37375 8.2309 6.37375C10.098 6.37375 11.6171 7.8929 11.6171 9.75996C11.6171 11.627 10.098 13.1462 8.2309 13.1462C6.36383 13.1462 4.84469 11.627 4.84469 9.75996H4.83748V2.45524C4.83748 2.23559 4.65951 2.05762 4.43985 2.05762C4.2202 2.05762 4.04223 2.23559 4.04223 2.45524V10.0181C4.04223 10.0678 4.03101 10.1416 4.04704 10.1856C4.24906 12.3044 6.06001 13.9398 8.2301 13.9398C10.5357 13.9398 12.4116 12.0639 12.4116 9.75836C12.4116 7.45279 10.5357 5.5769 8.2301 5.5769C7.64328 5.5769 7.0701 5.69876 6.541 5.93284V4.93077C7.08212 4.74158 7.64889 4.64538 8.2301 4.64538C11.0495 4.64538 13.3431 6.93892 13.3431 9.75836C13.3431 12.5778 11.0495 14.8713 8.2301 14.8713H8.2309Z" fill="#21C531"/>
</svg>
