<svg width="16" height="16" viewBox="0 0 16 16" fill="none" xmlns="http://www.w3.org/2000/svg">
<path d="M13.8097 9.56813C13.4329 10.9742 12.5579 12.1953 11.3475 13.004C10.1372 13.8127 8.67416 14.1539 7.23097 13.9639C5.78777 13.7739 4.46286 13.0657 3.50309 11.9713C2.54331 10.8769 2.01413 9.47087 2.01412 8.01522C2.01412 6.55957 2.54331 5.15356 3.50309 4.05914C4.46286 2.96473 5.78777 2.25655 7.23097 2.06655C8.67416 1.87655 10.1372 2.21768 11.3475 3.0264C12.5579 3.83511 13.4329 5.05625 13.8097 6.4623M13.8097 6.4623L10.999 5.66675M13.8097 6.4623L14.5861 3.56453" stroke="#222222" stroke-width="1.2" stroke-linecap="round" stroke-linejoin="round"/>
</svg>
