<svg width="20" height="20" viewBox="0 0 20 20" fill="none" xmlns="http://www.w3.org/2000/svg">
<path fill-rule="evenodd" clip-rule="evenodd" d="M10 17.5C14.1421 17.5 17.5 14.1421 17.5 10C17.5 5.85786 14.1421 2.5 10 2.5C5.85786 2.5 2.5 5.85786 2.5 10C2.5 14.1421 5.85786 17.5 10 17.5ZM7.92426 7.07574C7.68995 6.84142 7.31005 6.84142 7.07574 7.07574C6.84142 7.31005 6.84142 7.68995 7.07574 7.92426L9.15147 10L7.07574 12.0757C6.84142 12.3101 6.84142 12.6899 7.07574 12.9243C7.31005 13.1586 7.68995 13.1586 7.92426 12.9243L10 10.8485L12.0757 12.9243C12.3101 13.1586 12.69 13.1586 12.9243 12.9243C13.1586 12.6899 13.1586 12.3101 12.9243 12.0757L10.8485 10L12.9243 7.92426C13.1586 7.68995 13.1586 7.31005 12.9243 7.07574C12.69 6.84142 12.3101 6.84142 12.0757 7.07574L10 9.15147L7.92426 7.07574Z" fill="black" fill-opacity="0.12"/>
</svg>
