<svg width="22" height="22" viewBox="0 0 22 22" fill="none" xmlns="http://www.w3.org/2000/svg">
<path fill-rule="evenodd" clip-rule="evenodd" d="M11 19.25C15.5563 19.25 19.25 15.5563 19.25 11C19.25 6.44365 15.5563 2.75 11 2.75C6.44365 2.75 2.75 6.44365 2.75 11C2.75 15.5563 6.44365 19.25 11 19.25ZM8.67426 7.82574C8.43995 7.59142 8.06005 7.59142 7.82574 7.82574C7.59142 8.06005 7.59142 8.43995 7.82574 8.67426L10.1515 11L7.82574 13.3257C7.59142 13.5601 7.59142 13.9399 7.82574 14.1743C8.06005 14.4086 8.43995 14.4086 8.67426 14.1743L11 11.8485L13.3257 14.1743C13.5601 14.4086 13.94 14.4086 14.1743 14.1743C14.4086 13.9399 14.4086 13.5601 14.1743 13.3257L11.8485 11L14.1743 8.67426C14.4086 8.43995 14.4086 8.06005 14.1743 7.82574C13.94 7.59142 13.5601 7.59142 13.3257 7.82574L11 10.1515L8.67426 7.82574Z" fill="black" fill-opacity="0.12"/>
</svg>
