<svg width="82" height="24" viewBox="0 0 82 24" fill="none" xmlns="http://www.w3.org/2000/svg">
<path d="M8 7.42856V8.57142M8 11.4286V12.5714M8 15.4286V16.5714M5 20H19C20.6569 20 22 18.6569 22 17V7C22 5.34315 20.6569 4 19 4H5C3.34315 4 2 5.34315 2 7V17C2 18.6569 3.34315 20 5 20Z" stroke="#DDDDDD" stroke-width="1.5" stroke-linecap="round" stroke-linejoin="round"/>
<path d="M39.334 7.80954V8.85716M39.334 11.4762V12.5238M39.334 15.1429V16.1905M36.584 19.3334H49.4173C50.9361 19.3334 52.1673 18.1021 52.1673 16.5834V7.41669C52.1673 5.8979 50.9361 4.66669 49.4173 4.66669H36.584C35.0652 4.66669 33.834 5.8979 33.834 7.41669V16.5834C33.834 18.1021 35.0652 19.3334 36.584 19.3334Z" stroke="#DDDDDD" stroke-width="1.2" stroke-linecap="round" stroke-linejoin="round"/>
<path d="M68.666 8.19045V9.14283M68.666 11.5238V12.4762M68.666 14.8571V15.8095M66.166 18.6666H77.8327C79.2134 18.6666 80.3327 17.5474 80.3327 16.1666V7.83331C80.3327 6.4526 79.2134 5.33331 77.8327 5.33331H66.166C64.7853 5.33331 63.666 6.4526 63.666 7.83331V16.1666C63.666 17.5474 64.7853 18.6666 66.166 18.6666Z" stroke="#DDDDDD" stroke-width="1.2" stroke-linecap="round" stroke-linejoin="round"/>
</svg>
